<svg width="13" height="17" viewBox="0 0 13 17" fill="none" xmlns="http://www.w3.org/2000/svg">
<path d="M7.12922 0.686221C6.17322 0.447221 5.28522 1.17022 5.22122 2.10622C5.14922 3.15722 4.99122 4.12222 4.79322 4.69622C4.66822 5.05622 4.31422 5.70922 3.75322 6.33522C3.19622 6.95822 2.47122 7.51322 1.62222 7.74522C0.950225 7.92822 0.265224 8.51022 0.265224 9.36022V13.3612C0.265224 14.2062 0.947224 14.8252 1.71322 14.9062C2.78322 15.0202 3.27722 15.3212 3.78122 15.6292L3.82922 15.6592C4.10122 15.8242 4.40722 16.0072 4.79922 16.1432C5.19622 16.2792 5.66022 16.3602 6.26522 16.3602H9.76522C10.7022 16.3602 11.3642 15.8832 11.6992 15.2962C11.8611 15.0192 11.9486 14.705 11.9532 14.3842C11.9532 14.2322 11.9302 14.0722 11.8762 13.9202C12.0772 13.6572 12.2562 13.3422 12.3642 13.0192C12.4742 12.6892 12.5362 12.2572 12.3682 11.8702C12.4372 11.7402 12.4882 11.6012 12.5272 11.4672C12.6042 11.1972 12.6402 10.8992 12.6402 10.6102C12.6402 10.3222 12.6042 10.0252 12.5272 9.75422C12.493 9.62937 12.4468 9.50814 12.3892 9.39222C12.5643 9.14309 12.677 8.85553 12.7177 8.55376C12.7584 8.25199 12.726 7.94485 12.6232 7.65822C12.4172 7.06622 11.9412 6.55822 11.4232 6.38622C10.5762 6.10422 9.62022 6.11022 8.90722 6.17522C8.7592 6.18859 8.6115 6.20526 8.46422 6.22522C8.80972 4.73945 8.78844 3.19193 8.40222 1.71622C8.33479 1.47981 8.20542 1.26571 8.0275 1.09605C7.84958 0.926395 7.62957 0.807348 7.39022 0.751221L7.12922 0.686221ZM9.76522 15.3612H6.26522C5.75522 15.3612 5.40222 15.2922 5.12522 15.1972C4.84422 15.1002 4.61922 14.9692 4.34922 14.8042L4.30922 14.7802C3.75422 14.4412 3.11122 14.0492 1.81922 13.9122C1.48622 13.8762 1.26522 13.6222 1.26522 13.3622V9.36022C1.26522 9.10622 1.49122 8.81722 1.88522 8.71022C2.98022 8.41022 3.86222 7.71422 4.49922 7.00222C5.13422 6.29222 5.56322 5.52722 5.73722 5.02422C5.98022 4.32422 6.14422 3.25622 6.21922 2.17422C6.24422 1.81222 6.57922 1.58022 6.88622 1.65622L7.14822 1.72222C7.30822 1.76222 7.40622 1.86522 7.43622 1.97722C7.84461 3.53324 7.79425 5.17417 7.29122 6.70222C7.26275 6.78721 7.25765 6.87829 7.27644 6.96592C7.29524 7.05356 7.33725 7.13453 7.39808 7.20036C7.4589 7.2662 7.5363 7.31447 7.62218 7.34013C7.70806 7.36579 7.79925 7.36789 7.88622 7.34622L7.88922 7.34522L7.90322 7.34222L7.96122 7.32822C8.30322 7.25581 8.64914 7.20339 8.99722 7.17122C9.66022 7.11122 10.4542 7.11722 11.1072 7.33522C11.2822 7.39322 11.5572 7.63522 11.6772 7.98522C11.7842 8.29322 11.7642 8.65522 11.4112 9.00722L11.0582 9.36022L11.4112 9.71422C11.4542 9.75722 11.5162 9.85522 11.5652 10.0292C11.6132 10.1962 11.6402 10.3992 11.6402 10.6102C11.6402 10.8222 11.6132 11.0242 11.5652 11.1922C11.5152 11.3662 11.4542 11.4642 11.4112 11.5072L11.0582 11.8602L11.4112 12.2142C11.4582 12.2612 11.5202 12.3912 11.4162 12.7022C11.3085 13.0041 11.1362 13.2789 10.9112 13.5072L10.5582 13.8602L10.9112 14.2142C10.9172 14.2192 10.9522 14.2642 10.9522 14.3842C10.9464 14.5307 10.9048 14.6735 10.8312 14.8002C10.6662 15.0882 10.3282 15.3612 9.76522 15.3612Z" fill="white"/>
</svg>
